<?xml version="1.0" encoding="UTF-8"?>
<svg width="374px" height="606px" viewBox="0 0 374 606" version="1.1" xmlns="http://www.w3.org/2000/svg" xmlns:xlink="http://www.w3.org/1999/xlink">
    <!-- Generator: Sketch 52.2 (67145) - http://www.bohemiancoding.com/sketch -->
    <title>Group</title>
    <desc>Created with Sketch.</desc>
    <g id="Page-1" stroke="none" stroke-width="1" fill="none" fill-rule="evenodd">
        <g id="iPhone-XS" transform="translate(-1.000000, 0.000000)" fill-rule="nonzero">
            <g id="Bitmap" transform="translate(1.000000, -2.000000)">
                <g id="Group" transform="translate(-56.000000, -126.000000)">
                    <path d="M55,737 C120.65025,536.587973 289.274775,387.73247 560.873577,290.43349 C832.472378,193.134511 832.472378,109.990014 560.873577,41 L323.007597,41 L81.7153794,54.9818877 L55,737 Z" id="Path-2-Copy" fill="#A0F8E5"></path>
                    <path d="M5.84788898,737 C185.502839,457.793627 348.228052,318.190441 494.023526,318.190441 C639.819,318.190441 645.718313,225.793627 511.721466,41 L273.855486,41 L32.5632683,54.9818877 L5.84788898,737 Z" id="Path-2-Copy" fill="#B8FFF0"></path>
                    <path d="M0,758.403094 C170.886876,437.594659 329.228052,277.190441 475.023526,277.190441 C620.819,277.190441 626.718313,184.793627 492.721466,0 L254.855486,0 L13.5632683,13.9818877 L0,758.403094 Z" id="Path-2" fill="#CCFFF4"></path>
                </g>
            </g>
        </g>
    </g>
</svg>